<svg width="25" height="25" viewBox="0 0 25 25" fill="none" xmlns="http://www.w3.org/2000/svg">
<g id="Button &#226;&#134;&#146; SVG" clip-path="url(#clip0_2_1855)">
<path id="Vector" d="M12.8838 1.46289C19.0698 1.46289 24.0834 6.47769 24.0834 12.6625C24.0834 18.8473 19.0698 23.8621 12.8838 23.8621C6.6978 23.8621 1.6842 18.8485 1.6842 12.6625C1.6842 6.47649 6.6978 1.46289 12.8838 1.46289ZM12.8838 3.86289C8.0238 3.86289 4.0842 7.80249 4.0842 12.6625C4.0842 17.5225 8.0238 21.4621 12.8838 21.4621C17.7438 21.4621 21.6834 17.5225 21.6834 12.6625C21.6834 7.80249 17.7438 3.86289 12.8838 3.86289ZM12.8838 7.46289C13.1777 7.46293 13.4614 7.57084 13.6811 7.76615C13.9007 7.96146 14.041 8.23059 14.0754 8.52249L14.0838 8.66289V11.4625H16.8846C17.1905 11.4628 17.4846 11.5799 17.707 11.7899C17.9295 11.9999 18.0633 12.2868 18.0812 12.5922C18.0991 12.8975 17.9998 13.1981 17.8035 13.4327C17.6072 13.6672 17.3287 13.818 17.025 13.8541L16.8846 13.8625H14.0838V16.6633C14.0835 16.9691 13.9664 17.2633 13.7564 17.4857C13.5464 17.7081 13.2595 17.842 12.9541 17.8599C12.6488 17.8778 12.3481 17.7785 12.1136 17.5822C11.8791 17.3859 11.7283 17.1074 11.6922 16.8037L11.6838 16.6621V13.8625H8.8842C8.57835 13.8622 8.28417 13.745 8.06176 13.5351C7.83936 13.3251 7.70552 13.0381 7.6876 12.7328C7.66967 12.4275 7.76901 12.1268 7.96532 11.8923C8.16163 11.6577 8.44009 11.507 8.7438 11.4709L8.8842 11.4625H11.6838V8.66289C11.6838 8.34463 11.8102 8.03941 12.0353 7.81436C12.2603 7.58932 12.5655 7.46289 12.8838 7.46289Z" fill="#F1F5F9"/>
</g>
<defs>
<clipPath id="clip0_2_1855">
<rect width="24" height="24" fill="white" transform="translate(0.883789 0.662598)"/>
</clipPath>
</defs>
</svg>
