<svg width="24" height="24" viewBox="0 0 24 24" fill="none" xmlns="http://www.w3.org/2000/svg">
<g id="Button &#226;&#134;&#146; SVG">
<path id="Vector" d="M16.9092 2.00161H17.0508L17.568 2.01001L18.0144 2.02681C18.8448 2.07121 19.32 2.18161 19.8168 2.43481C20.5692 2.81881 21.1812 3.43081 21.5652 4.18321L21.612 4.27801L21.696 4.46401C21.7992 4.71241 21.8676 4.96201 21.9132 5.28961L21.9432 5.55001L21.966 5.84641L21.9816 6.18481L21.9924 6.57241L21.9984 7.01521L22.0008 16.2L21.9984 16.9848L21.9924 17.4276L21.9816 17.8152L21.966 18.1536L21.9432 18.45L21.9132 18.7104C21.8738 19.0276 21.7869 19.3371 21.6552 19.6284L21.564 19.8168C21.18 20.5692 20.5692 21.1812 19.8156 21.5652L19.7208 21.612L19.5348 21.696C19.2864 21.7992 19.0368 21.8676 18.7092 21.9132L18.4488 21.9432L18.1524 21.966L17.814 21.9816L17.4264 21.9924L16.9836 21.9984L7.79881 22.0008L7.01401 21.9984L6.57121 21.9924L6.18361 21.9816L5.84521 21.966L5.54881 21.9432L5.28841 21.9132C4.97118 21.8738 4.6617 21.7869 4.37041 21.6552L4.18201 21.564C3.42961 21.18 2.81761 20.5692 2.43361 19.8156C2.18041 19.3188 2.07001 18.8436 2.02561 18.012L2.00881 17.5644L2.00401 17.3148L1.99921 16.758L2.00041 7.08961V6.94801L2.00881 6.43081L2.02561 5.98441C2.07001 5.15401 2.18041 4.67881 2.43361 4.18201C2.81761 3.42961 3.42961 2.81761 4.18201 2.43361C4.67881 2.18041 5.15401 2.07001 5.98441 2.02561L6.43081 2.00881L6.67921 2.00401L7.23481 1.99921L16.9056 2.00041L16.9092 2.00161ZM16.9896 4.00201H7.01281L6.42121 4.01281L6.10201 4.02601L5.83561 4.04521L5.61481 4.07041L5.43121 4.10281C5.31339 4.12652 5.1992 4.16566 5.09161 4.21921C4.71481 4.41121 4.40881 4.71721 4.21801 5.09281C4.16446 5.2004 4.12532 5.31459 4.10161 5.43241L4.06921 5.61601L4.04401 5.83681L4.03321 5.96401L4.01761 6.25561L4.00681 6.60241L4.00081 7.01161V16.9884L4.01161 17.58L4.02481 17.8992L4.04401 18.1656L4.06921 18.3864L4.10161 18.57C4.12532 18.6878 4.16446 18.802 4.21801 18.9096C4.41001 19.2864 4.71601 19.5924 5.09161 19.7832L5.18761 19.8276L5.29321 19.866L5.41441 19.8984L5.55601 19.9248L5.72281 19.9464L6.03241 19.9716L6.28681 19.9836L6.58561 19.992L7.33681 20.0004L16.2 20.0016L17.0664 19.998L17.7132 19.9836L17.9676 19.9716L18.2772 19.9464L18.444 19.9248L18.5856 19.8984L18.648 19.8828L18.7608 19.848L18.8124 19.8288L18.9084 19.7844C19.2852 19.5924 19.5912 19.2864 19.782 18.9108L19.8048 18.864L19.8456 18.7644L19.8636 18.7104L19.896 18.5892L19.9224 18.4476L19.944 18.2808L19.9692 17.9712L19.9812 17.7168L19.9896 17.418L19.998 16.6668L19.9992 7.80361L19.9956 6.93721L19.9812 6.29041L19.9692 6.03601L19.944 5.72641L19.9224 5.55961L19.896 5.41801L19.8804 5.35561L19.8456 5.24281L19.8264 5.19121L19.782 5.09521C19.59 4.71841 19.284 4.41241 18.9084 4.22161C18.8008 4.16806 18.6866 4.12892 18.5688 4.10521L18.3852 4.07281L18.1644 4.04761L18.0372 4.03681L17.7456 4.02121L17.3988 4.01041L16.9896 4.00441V4.00201ZM16.7988 11.3988L16.8048 11.4072L16.8204 11.4288L16.8516 11.4756L16.872 11.5104L16.9068 11.5788L16.926 11.6232L16.938 11.6556L16.95 11.6904L16.974 11.7804L16.9836 11.8272L16.9956 11.916L16.998 11.9604V12.0492L16.9944 12.102L16.9824 12.1872L16.9728 12.2328L16.9464 12.324L16.9404 12.342L16.9368 12.3492L16.9284 12.3744L16.9104 12.4164L16.8792 12.4788L16.8588 12.5136L16.8036 12.5952L16.7928 12.6096L16.77 12.6372L16.728 12.684L16.7088 12.7044L12.7092 16.704C12.3192 17.094 11.6856 17.094 11.2944 16.704C10.9344 16.344 10.9056 15.7764 11.2116 15.384L11.2944 15.2892L13.5864 12.996H8.00041C7.44841 12.996 7.00081 12.5484 7.00081 11.9964C7.00081 11.484 7.38721 11.0604 7.88401 11.0028L8.00041 10.9956H13.5864L11.2932 8.70361C10.9032 8.31361 10.9032 7.68001 11.2932 7.28881C11.6532 6.92881 12.2208 6.90001 12.6132 7.20601L12.708 7.28881L16.7244 11.3052L16.7448 11.3268L16.7232 11.304L16.7736 11.3604L16.782 11.3712L16.8 11.394L16.7988 11.3988Z" fill="#7C878E"/>
</g>
</svg>
